<svg width="22" height="22" viewBox="0 0 22 22" fill="none" xmlns="http://www.w3.org/2000/svg">
<path d="M9.94727 2.07617C10.4991 2.07665 10.9471 2.52429 10.9473 3.07617C10.9473 3.62816 10.4991 4.07569 9.94727 4.07617H4.97656C4.18817 4.07627 3.43117 4.3903 2.87305 4.94922C2.31486 5.50846 2.00104 6.26806 2.00098 7.05957V17.0166C2.00103 17.8081 2.31494 18.5668 2.87305 19.126C3.43118 19.6851 4.18805 19.9989 4.97656 19.999H15.9111C16.6862 19.9988 17.1097 19.7092 17.3877 19.2832C17.7078 18.7922 17.8926 18.0195 17.8926 17.0166V12.0381C17.8927 11.486 18.3405 11.0382 18.8926 11.0381C19.4446 11.0384 19.8925 11.4861 19.8926 12.0381V17.0166C19.8926 18.2037 19.6847 19.4233 19.0635 20.376C18.3999 21.3933 17.3316 21.9988 15.9111 21.999H4.97656C3.65649 21.9989 2.39095 21.4736 1.45801 20.5391C0.525094 19.6046 5.32581e-05 18.3376 0 17.0166V7.05957C6.23547e-05 5.73862 0.525125 4.47066 1.45801 3.53613C2.39091 2.60187 3.65665 2.07627 4.97656 2.07617H9.94727ZM18.543 0.000976562C18.9631 0.0135102 19.3788 0.10016 19.7695 0.257812C20.2161 0.438084 20.6221 0.707466 20.9619 1.04883C21.3015 1.39012 21.5696 1.79671 21.748 2.24414C21.9264 2.69143 22.0124 3.17144 22.001 3.65332C21.9909 4.07482 21.9065 4.49092 21.752 4.88184L21.6807 5.04785C21.4876 5.47208 21.212 5.85317 20.8721 6.17188L20.873 6.17285L11.3896 15.6719C11.0214 16.0408 10.5329 16.3081 10.0645 16.498C9.58307 16.6932 9.05241 16.8357 8.54102 16.9209C8.03299 17.0055 7.50583 17.0397 7.03516 16.998C6.62352 16.9616 6.02 16.8486 5.60059 16.4287C5.18306 16.0101 5.06964 15.4088 5.03223 14.9971C4.9895 14.5263 5.02244 13.9992 5.10547 13.4902C5.18906 12.9779 5.32964 12.4464 5.52344 11.9639C5.71196 11.4945 5.97778 11.0043 6.34668 10.6348L15.8389 1.12598C16.1583 0.785234 16.5411 0.50939 16.9668 0.316406C17.4055 0.117565 17.8807 0.0101616 18.3623 0L18.543 0.000976562ZM18.4043 1.99902C18.2464 2.00237 18.0897 2.02998 17.9404 2.08008L17.793 2.13867C17.6008 2.22579 17.4279 2.35094 17.2852 2.50684C17.2754 2.51748 17.2651 2.52884 17.2549 2.53906L7.76172 12.0479C7.65858 12.1512 7.51642 12.3666 7.37891 12.709C7.24657 13.0385 7.14213 13.4262 7.0791 13.8125C7.01555 14.2021 7.00067 14.5548 7.02441 14.8164C7.03086 14.8872 7.03892 14.9418 7.04688 14.9824C7.08716 14.9902 7.1416 14.9996 7.21191 15.0059C7.47223 15.0288 7.82341 15.0119 8.21191 14.9473C8.59718 14.8831 8.98453 14.7779 9.31348 14.6445C9.65491 14.5061 9.87085 14.3636 9.97461 14.2598L19.457 4.75977C19.4677 4.74907 19.4791 4.73872 19.4902 4.72852C19.6462 4.58602 19.7725 4.41258 19.8604 4.21973C19.9482 4.0266 19.9959 3.81738 20.001 3.60547C20.006 3.39364 19.9682 3.18246 19.8896 2.98535C19.8112 2.78863 19.6941 2.60899 19.5449 2.45898C19.3958 2.30917 19.2171 2.19134 19.0215 2.1123C18.8258 2.03334 18.6152 1.99465 18.4043 1.99902Z" fill="#00629B"/>
</svg>
